Coordinates
version=1
nRows=19
nColumns=33
inDegrees=yes

Units are S.I. units (second, meters, Newtons, ...)
Angles are in degrees.

endheader
time	ground_thorax_rot_x	ground_thorax_rot_y	ground_thorax_rot_z	ground_thorax_tx	ground_thorax_ty	ground_thorax_tz	clav_prot_r	clav_elev_r	scapula_abduction_r	scapula_elevation_r	scapula_upward_rot_r	scapula_winging_r	shoulder_elv_r	plane_of_elev_r	axial_rot_r	elbow_flexion_r	pro_sup_r	wrist_flex_r	wrist_dev_r	clav_prot_l	clav_elev_l	scapula_abduction_l	scapula_elevation_l	scapula_upward_rot_l	scapula_winging_l	shoulder_elv_l	plane_of_elev_l	axial_rot_l	elbow_flexion_l	pro_sup_l	wrist_flex_l	wrist_dev_l
      0.77000000	      1.56723588	     -1.30944800	    -12.82011162	     -0.04156301	      1.04736829	     -0.00094520	    -12.70152347	     -6.93356116	    -11.08246120	     -1.94267911	      9.39152176	     -0.60403739	     59.69270769	    -44.41092054	     65.47962744	     72.52027015	      6.52229442	     20.42727997	      8.43055566	     -5.68655650	     -4.64332031	      3.37626515	     -3.64285582	     -3.22529460	     -0.53777229	     57.48339104	    -53.00138822	    -41.41293548	     70.86095072	     10.09035867	     -0.64823400	    -24.99999983
      0.78000000	      1.49101314	     -1.33291233	    -13.09438527	     -0.04137714	      1.04709375	     -0.00093771	    -12.70855060	     -6.70992677	    -10.95064912	     -1.85940237	      9.75029208	     -0.76865103	     59.98274901	    -44.14530517	     65.48097506	     73.66322827	      6.43988189	     20.69834556	      8.44507486	     -5.66551722	     -4.34847423	      3.28133236	     -3.79602843	     -2.91669583	     -0.39455204	     57.79991484	    -52.94428561	    -41.41758619	     71.97151328	      9.94199696	     -0.69276360	    -24.99999983
      0.79000000	      1.44997139	     -1.36581937	    -12.85719548	     -0.04137537	      1.04699151	     -0.00090964	    -12.62219916	     -6.42223991	    -10.73341830	     -1.67636604	      9.98861591	     -0.94416716	     60.80043761	    -44.02477130	     66.16260481	     75.00497494	      6.40756261	     20.82849853	      8.82373302	     -5.56533868	     -4.08935263	      3.07289557	     -3.95316872	     -2.70197789	     -0.24924322	     58.39624584	    -53.34212302	    -41.94610134	     73.12744739	      9.36938657	     -0.50378643	    -24.99999983
      0.80000000	      1.41734402	     -1.37979685	    -13.14780162	     -0.04119893	      1.04678522	     -0.00102883	    -12.60137583	     -6.24997694	    -10.53334757	     -1.64208007	     10.36253722	     -1.09903162	     61.18699770	    -43.72903725	     66.19362077	     76.12119505	      6.33616610	     21.05099627	      8.88337291	     -5.51917207	     -3.87242334	      2.91707324	     -4.03699611	     -2.39601786	     -0.11238387	     58.72115625	    -53.26879895	    -42.03097349	     74.29413747	      9.09062385	     -0.50149101	    -24.99999983
      0.81000000	      1.52803437	     -1.42857224	    -13.18539361	     -0.04060784	      1.04765861	     -0.00083340	    -12.66265640	     -6.72111997	    -10.59144669	     -2.03455331	     10.27096437	     -0.89577482	     63.17815611	    -43.60803097	     67.14556533	     77.99874851	      6.24688634	     20.54864731	      9.70162866	     -5.56123219	     -4.57699723	      2.80143373	     -3.35409439	     -2.27228949	     -0.24496870	     60.11583803	    -54.19560381	    -43.22937246	     75.47353555	      5.95099394	      0.26548278	    -24.99999983
      0.82000000	      1.41374166	     -1.45906026	    -13.33081464	     -0.04047784	      1.04735506	     -0.00088716	    -12.62241050	     -6.48852266	    -10.38319137	     -1.93614562	     10.61709947	     -1.06984707	     63.38561007	    -43.22532324	     67.14589794	     79.05728406	      6.16541708	     20.82986582	      9.67806317	     -5.50013575	     -4.23455229	      2.64998785	     -3.56017985	     -1.98784654	     -0.07697644	     60.42504256	    -54.03399804	    -43.29778522	     76.52701954	      5.75741721	      0.25204111	    -24.99999983
      0.83000000	      1.34527220	     -1.47236044	    -12.99084512	     -0.04045526	      1.04714246	     -0.00087200	    -12.52965124	     -6.13850975	    -10.21486627	     -1.66836296	     10.76469703	     -1.24568318	     63.93742938	    -42.92362872	     67.48265485	     80.27685342	      6.04326525	     20.97772433	      9.74261521	     -5.36922991	     -3.87504348	      2.43937717	     -3.84102282	     -1.86315585	      0.08153882	     60.96987850	    -54.11432710	    -43.90256998	     77.51157502	      4.60504040	      0.46140530	    -24.99999983
      0.84000000	      1.28273448	     -1.49514304	    -13.24358497	     -0.04023554	      1.04701217	     -0.00093859	    -12.51327661	     -6.04616106	    -10.00470333	     -1.70363530	     11.13587405	     -1.37249912	     64.16751028	    -42.54924588	     67.32030232	     81.32969149	      5.93709858	     21.19816166	      9.69830585	     -5.32429900	     -3.73567104	      2.27340787	     -3.86113761	     -1.57221714	      0.19985867	     61.24091347	    -53.89085651	    -43.88844514	     78.48700667	      4.27191596	      0.44705182	    -24.99999983
      0.85000000	      1.28811015	     -1.55736354	    -13.30604694	     -0.03976277	      1.04757301	     -0.00077990	    -12.52591615	     -6.38314256	    -10.05592754	     -1.94442875	     10.95231487	     -1.20494022	     65.39952794	    -42.09823262	     67.52310162	     82.79087803	      5.40300442	     20.56970484	      9.78618013	     -5.28770307	     -4.23041815	      2.17590049	     -3.48039389	     -1.74806210	      0.06632483	     62.44589563	    -54.22869341	    -44.83725733	     79.42381679	     -1.28343563	      1.01825215	    -24.99999983
      0.86000000	      1.21533121	     -1.60241110	    -13.35617614	     -0.03952044	      1.04740967	     -0.00069374	    -12.51476530	     -6.25943592	     -9.85704819	     -1.95322805	     11.32942888	     -1.34063537	     65.55042374	    -41.73490794	     67.34755933	     83.79638203	      5.30172648	     20.83377880	      9.72821737	     -5.22806145	     -4.05209960	      1.99855373	     -3.54555904	     -1.48403737	      0.19886528	     62.68080609	    -53.95537255	    -44.85355138	     80.17596960	     -1.38411633	      1.01500673	    -24.99999983
      0.87000000	      1.17676278	     -1.58738544	    -13.36688798	     -0.03922189	      1.04726940	     -0.00074168	    -12.50423799	     -6.15296072	     -9.67100969	     -1.96755244	     11.67494925	     -1.46458766	     65.71937586	    -41.41890039	     67.13088935	     84.71000819	      5.18049760	     21.03391851	      9.64479513	     -5.18292322	     -3.93396816	      1.83595828	     -3.55528542	     -1.21745027	      0.30783850	     62.87131329	    -53.65164574	    -44.82727879	     81.00733184	     -1.56698124	      0.99946638	    -24.99999983
      0.88000000	      1.13493828	     -1.58655914	    -13.35713084	     -0.03889937	      1.04716570	     -0.00077293	    -12.48790642	     -6.10181377	     -9.47310643	     -2.02309038	     11.99978638	     -1.56562295	     65.85446314	    -41.09797590	     66.84276988	     85.59020539	      5.02870469	     21.18295117	      9.52683442	     -5.12974241	     -3.87876995	      1.65253693	     -3.51663042	     -0.97270834	      0.40355243	     63.05502817	    -53.33682445	    -44.76823345	     81.70554422	     -1.81259920	      0.97655799	    -24.99999983
      0.89000000	      1.11378131	     -1.56253349	    -13.36017632	     -0.03858191	      1.04706776	     -0.00081590	    -12.46324563	     -6.09134636	     -9.26721464	     -2.10568372	     12.29597362	     -1.64365380	     65.96830609	    -40.78660538	     66.46999396	     86.40519684	      4.83209407	     21.26339904	      9.36214570	     -5.07497708	     -3.89509202	      1.45424921	     -3.41616272	     -0.73362057	      0.48176429	     63.20743360	    -52.96309867	    -44.65657843	     82.38032510	     -2.14476104	      0.94092994	    -24.99999983
      0.90000000	      1.15184001	     -1.54105213	    -13.22928577	     -0.03904783	      1.04702377	     -0.00079527	    -12.02824301	     -5.78866357	     -8.77339618	     -1.70769815	     11.93800038	     -1.73970637	     65.85880924	    -40.44691140	     65.38196113	     87.27098724	      2.49368714	     19.50191400	      8.24172712	     -4.61374391	     -3.99209995	      0.83180927	     -3.54184844	     -1.29411467	      0.51748471	     63.30009115	    -52.52930648	    -44.20980457	     82.88253861	     -7.95593680	      0.85863826	    -24.99999983
      0.91000000	      1.14990494	     -1.52287235	    -13.16920583	     -0.03870011	      1.04714417	     -0.00081165	    -12.03448547	     -5.90471831	     -8.57938207	     -1.91064530	     12.26100401	     -1.78181920	     65.91963499	    -40.07298858	     65.03936409	     87.83070307	      2.35478445	     19.66501840	      8.18876816	     -4.57457492	     -4.12144315	      0.63330564	     -3.33529673	     -1.04452231	      0.57429276	     63.40140286	    -52.02828801	    -44.13886806	     83.24983842	     -8.13306937	      0.85960961	    -24.99999983
      0.92000000	      1.10026384	     -1.39303100	    -13.32563444	     -0.03854077	      1.04701617	     -0.00087438	    -12.08176675	     -5.85738608	     -8.59461250	     -1.91663511	     12.40399206	     -1.81911356	     65.23557154	    -39.41406807	     63.90075741	     88.05076975	      0.05722269	     19.10161194	      7.90482544	     -4.48947107	     -4.11646013	      0.48860615	     -3.34625907	     -1.05966068	      0.60129692	     63.27966244	    -50.94031084	    -43.68736082	     83.66612442	    -11.84644245	      0.94856469	    -24.01548041
      0.93000000	      1.23589135	     -1.28403996	    -13.36833641	     -0.03802854	      1.04728468	     -0.00092269	    -12.09720869	     -6.09728323	     -8.44982367	     -2.19441768	     12.61861155	     -1.78179439	     65.22366833	    -39.16022522	     63.08782588	     88.42678234	     -0.38938647	     19.07618976	      7.66023781	     -4.46040020	     -4.54238178	      0.28002562	     -2.89855621	     -0.87650241	      0.56847021	     63.24525859	    -50.25106556	    -43.40570473	     83.78677804	    -12.28387811	      0.87923839	    -23.93177851
      0.94000000	      1.13245999	     -1.31708863	    -13.23591337	     -0.03840261	      1.04704446	     -0.00097622	    -11.79126715	     -5.92189093	     -8.04064008	     -1.97844390	     12.46164279	     -1.86244981	     64.44665098	    -38.40107004	     61.83043076	     88.47891331	     -2.60744911	     18.01330464	      7.12489366	     -4.20705039	     -4.52426777	     -0.09015094	     -2.99107222	     -1.07359991	      0.63564425	     63.06193214	    -49.36327909	    -42.64217287	     84.11456475	    -14.63292238	      0.78946184	    -22.73235019
      0.95000000	      1.16720088	     -1.24970978	    -13.20938637	     -0.03834797	      1.04709990	     -0.00102339	    -11.72833996	     -5.97568407	     -7.86680155	     -2.05250107	     12.55611556	     -1.87729898	     63.81509346	    -37.73440709	     60.74219676	     88.37253943	     -4.74360718	     17.47714314	      6.99356308	     -4.06206623	     -4.75717268	     -0.36023875	     -2.81454479	     -1.15542322	      0.62683670	     62.81440844	    -48.32593462	    -41.96282020	     84.12003177	    -16.62978115	      0.71878669	    -21.82811158
